<mxfile host="app.diagrams.net" modified="2023-12-30T04:55:17.009Z" agent="Mozilla/5.0 (Macintosh; Intel Mac OS X 10_15_7) AppleWebKit/605.1.15 (KHTML, like Gecko) Version/16.6 Safari/605.1.15" version="22.1.16" etag="mNphw3E8AhC3ySeLkeDH" type="github">
  <diagram name="페이지-1" id="FgswKqB5fJNoUAQWUgf7">
    <mxGraphModel>
      <root>
        <mxCell id="0" />
        <mxCell id="1" parent="0" />
      </root>
    </mxGraphModel>
  </diagram>
</mxfile>
